<svg id="mySVG" width="850" height="650" style="margin: 50" xmlns="http://www.w3.org/2000/svg" xmlns:xlink="http://www.w3.org/1999/xlink"><line id="60" x1="60" y1="60" x2="700" y2="60" stroke="black" style="stroke-width: 2.5;"/><line id="80" x1="60" y1="80" x2="700" y2="80" stroke="black" style="stroke-width: 2.5;"/><line id="100" x1="60" y1="100" x2="700" y2="100" stroke="black" style="stroke-width: 2.5;"/><line id="120" x1="60" y1="120" x2="700" y2="120" stroke="black" style="stroke-width: 2.5;"/><line id="140" x1="60" y1="140" x2="700" y2="140" stroke="black" style="stroke-width: 2.5;"/><line id="160" x1="60" y1="160" x2="700" y2="160" stroke="black" style="stroke-width: 2.5;"/><line id="180" x1="60" y1="180" x2="700" y2="180" stroke="black" style="stroke-width: 2.5;"/><line id="200" x1="60" y1="200" x2="700" y2="200" stroke="black" style="stroke-width: 2.5;"/><line id="220" x1="60" y1="220" x2="700" y2="220" stroke="black" style="stroke-width: 2.5;"/><line id="240" x1="60" y1="240" x2="700" y2="240" stroke="black" style="stroke-width: 2.5;"/><line id="260" x1="60" y1="260" x2="700" y2="260" stroke="black" style="stroke-width: 2.5;"/><line id="280" x1="60" y1="280" x2="700" y2="280" stroke="black" style="stroke-width: 2.5;"/><line id="300" x1="60" y1="300" x2="700" y2="300" stroke="black" style="stroke-width: 2.5;"/><line id="320" x1="60" y1="320" x2="700" y2="320" stroke="black" style="stroke-width: 2.5;"/><line id="340" x1="60" y1="340" x2="700" y2="340" stroke="black" style="stroke-width: 2.5;"/><line id="360" x1="60" y1="360" x2="700" y2="360" stroke="black" style="stroke-width: 2.5;"/><line id="380" x1="60" y1="380" x2="700" y2="380" stroke="black" style="stroke-width: 2.5;"/><line id="400" x1="60" y1="400" x2="700" y2="400" stroke="black" style="stroke-width: 2.5;"/><line id="420" x1="60" y1="420" x2="700" y2="420" stroke="black" style="stroke-width: 2.5;"/><line id="440" x1="60" y1="440" x2="700" y2="440" stroke="black" style="stroke-width: 2.5;"/><line id="460" x1="60" y1="460" x2="700" y2="460" stroke="black" style="stroke-width: 2.5;"/><line id="480" x1="60" y1="480" x2="700" y2="480" stroke="black" style="stroke-width: 2.5;"/><line id="500" x1="60" y1="500" x2="700" y2="500" stroke="black" style="stroke-width: 2.5;"/><line id="60" x1="60" y1="60" x2="60" y2="500" stroke="black" style="stroke-width: 2.5;"/><line id="80" x1="80" y1="60" x2="80" y2="500" stroke="black" style="stroke-width: 2.5;"/><line id="100" x1="100" y1="60" x2="100" y2="500" stroke="black" style="stroke-width: 2.5;"/><line id="120" x1="120" y1="60" x2="120" y2="500" stroke="black" style="stroke-width: 2.5;"/><line id="140" x1="140" y1="60" x2="140" y2="500" stroke="black" style="stroke-width: 2.5;"/><line id="160" x1="160" y1="60" x2="160" y2="500" stroke="black" style="stroke-width: 2.5;"/><line id="180" x1="180" y1="60" x2="180" y2="500" stroke="black" style="stroke-width: 2.5;"/><line id="200" x1="200" y1="60" x2="200" y2="500" stroke="black" style="stroke-width: 2.5;"/><line id="220" x1="220" y1="60" x2="220" y2="500" stroke="black" style="stroke-width: 2.5;"/><line id="240" x1="240" y1="60" x2="240" y2="500" stroke="black" style="stroke-width: 2.5;"/><line id="260" x1="260" y1="60" x2="260" y2="500" stroke="black" style="stroke-width: 2.5;"/><line id="280" x1="280" y1="60" x2="280" y2="500" stroke="black" style="stroke-width: 2.5;"/><line id="300" x1="300" y1="60" x2="300" y2="500" stroke="black" style="stroke-width: 2.5;"/><line id="320" x1="320" y1="60" x2="320" y2="500" stroke="black" style="stroke-width: 2.5;"/><line id="340" x1="340" y1="60" x2="340" y2="500" stroke="black" style="stroke-width: 2.5;"/><line id="360" x1="360" y1="60" x2="360" y2="500" stroke="black" style="stroke-width: 2.5;"/><line id="380" x1="380" y1="60" x2="380" y2="500" stroke="black" style="stroke-width: 2.5;"/><line id="400" x1="400" y1="60" x2="400" y2="500" stroke="black" style="stroke-width: 2.5;"/><line id="420" x1="420" y1="60" x2="420" y2="500" stroke="black" style="stroke-width: 2.5;"/><line id="440" x1="440" y1="60" x2="440" y2="500" stroke="black" style="stroke-width: 2.5;"/><line id="460" x1="460" y1="60" x2="460" y2="500" stroke="black" style="stroke-width: 2.5;"/><line id="480" x1="480" y1="60" x2="480" y2="500" stroke="black" style="stroke-width: 2.5;"/><line id="500" x1="500" y1="60" x2="500" y2="500" stroke="black" style="stroke-width: 2.5;"/><line id="520" x1="520" y1="60" x2="520" y2="500" stroke="black" style="stroke-width: 2.5;"/><line id="540" x1="540" y1="60" x2="540" y2="500" stroke="black" style="stroke-width: 2.5;"/><line id="560" x1="560" y1="60" x2="560" y2="500" stroke="black" style="stroke-width: 2.5;"/><line id="580" x1="580" y1="60" x2="580" y2="500" stroke="black" style="stroke-width: 2.5;"/><line id="600" x1="600" y1="60" x2="600" y2="500" stroke="black" style="stroke-width: 2.5;"/><line id="620" x1="620" y1="60" x2="620" y2="500" stroke="black" style="stroke-width: 2.5;"/><line id="640" x1="640" y1="60" x2="640" y2="500" stroke="black" style="stroke-width: 2.5;"/><line id="660" x1="660" y1="60" x2="660" y2="500" stroke="black" style="stroke-width: 2.5;"/><line id="680" x1="680" y1="60" x2="680" y2="500" stroke="black" style="stroke-width: 2.5;"/><line id="700" x1="700" y1="60" x2="700" y2="500" stroke="black" style="stroke-width: 2.5;"/><circle id="0point-id" cx="140" cy="440" r="5" stroke="red" fill="pink"/><circle id="1point-id" cx="220" cy="380" r="5" stroke="red" fill="pink"/><circle id="2point-id" cx="300" cy="320" r="5" stroke="red" fill="pink"/><circle id="3point-id" cx="380" cy="260" r="5" stroke="red" fill="pink"/><circle id="4point-id" cx="400" cy="280" r="5" stroke="red" fill="pink"/><circle id="5point-id" cx="460" cy="200" r="5" stroke="red" fill="pink"/><circle id="6point-id" cx="520" cy="130" r="5" stroke="red" fill="pink"/><circle id="7point-id" cx="540" cy="140" r="5" stroke="red" fill="pink"/><text id="80text-id" x="140" y="515" stroke="red" fill="black" style="text-anchor: middle;">20</text><text id="160text-id" x="220" y="515" stroke="red" fill="black" style="text-anchor: middle;">40</text><text id="240text-id" x="300" y="515" stroke="red" fill="black" style="text-anchor: middle;">60</text><text id="320text-id" x="380" y="515" stroke="red" fill="black" style="text-anchor: middle;">80</text><text id="400text-id" x="460" y="515" stroke="red" fill="black" style="text-anchor: middle;">100</text><text id="480text-id" x="540" y="515" stroke="red" fill="black" style="text-anchor: middle;">120</text><text id="60text-y-axis-id" x="40" y="445" stroke="red" fill="black" style="text-anchor: middle;">60</text><text id="120text-y-axis-id" x="40" y="385" stroke="red" fill="black" style="text-anchor: middle;">120</text><text id="180text-y-axis-id" x="40" y="325" stroke="red" fill="black" style="text-anchor: middle;">180</text><text id="240text-y-axis-id" x="40" y="265" stroke="red" fill="black" style="text-anchor: middle;">240</text><text id="300text-y-axis-id" x="40" y="205" stroke="red" fill="black" style="text-anchor: middle;">300</text><text id="360text-y-axis-id" x="40" y="145" stroke="red" fill="black" style="text-anchor: middle;">360</text><text id="420text-y-axis-id" x="40" y="85" stroke="red" fill="black" style="text-anchor: middle;">420</text><polyline points="140,440 220,380  300,320  380,260 460,200 540,140" style="stroke:#006600; fill: #33cc33;stroke-width:3"/><line x1="60" y1="500" x2="140" y2="440" style="stroke:#006600; fill: #33cc33;stroke-width:3;stroke-dasharray:10 5"/><line x1="540" y1="140" x2="620" y2="80" style="stroke:#006600; fill: #33cc33;stroke-width:3;stroke-dasharray:10 5"/><text x="200" y="540" style="fill: #000000; stroke: none; font-size: 20px;">
          Temperature(K)
      </text><text x="10" y="150" style="fill: #000000; stroke: none; font-size: 20px; writing-mode: tb;">
          Volume(mL)
      </text><text x="200" y="30">
              <tspan style="fill: #000000; stroke: none; font-size: 25px;">Graph of Temperature(K) vs  Volume(mL)</tspan>
              <tspan dx="-260" dy="20" style="fill: green; stroke: none; font-size: 13px;">Drawn By Bede Asonye</tspan>
          </text><text x="720" y="140" style="fill: green; stroke: none; font-size: 20px; writing-mode: tb">
         1 square to 20 mL on y-axis
      </text><text x="500" y="540" style="fill: green; stroke: none; font-size: 20px;">
                  1 square to 5 K on x-axis
      </text><polyline points="220,380 460,380  460,200" style="stroke:red;fill:none;stroke-width:3"/><text x="213" y="370" style="fill: red; stroke: none; font-size: 26px;">
        A
      </text><text x="450" y="400" style="fill: red; stroke: none; font-size: 26px;">
        C
      </text><text x="450" y="193" style="fill: red; stroke: none; font-size: 26px;">
        B
      </text><polyline points="500,500 500,170  60,170" style="stroke:#006600;fill:none;stroke-width:3;stroke-dasharray:10 5"><title>interpolaton</title></polyline><polyline points="580,500 580,110  60,110" style="stroke:#006600;fill:none;stroke-width:3;stroke-dasharray:10 5"> <title>exterpolaton</title></polyline></svg>